Coordinates
nRows=125
nColumns=2
inDegrees=yes
endheader
time	ankle_angle_r	
3.22077	 -5.362545	
3.29234	 -5.319024	
3.36391	 -5.371094	
3.43548	 -5.320419	
3.50706	 -5.376201	
3.57863	 -5.361150	
3.6502	 -5.340576	
3.72177	 -5.350104	
3.79335	 -5.319378	
3.86492	 -5.380206	
3.93649	 -5.294800	
4.00806	 -5.349272	
4.07964	 -5.386353	
4.15121	 -5.348856	
4.22278	 -5.325317	
4.29435	 -5.325786	
4.36593	 -5.401664	
4.4375	 -5.394890	
4.50907	 -5.363854	
4.58065	 -5.423902	
4.65222	 -5.416870	
4.72379	 -5.416870	
4.79536	 -5.368650	
4.86694	 -5.432129	
4.93851	 -5.444112	
5.01008	 -5.399519	
5.08165	 -5.401611	
5.15323	 -5.381829	
5.2248	 -5.391292	
5.29637	 -5.325317	
5.36794	 -5.305315	
5.43952	 -5.371094	
5.51109	 -5.360162	
5.58266	 -5.366974	
5.65423	 -5.313970	
5.72581	 -5.413167	
5.79738	 -5.340576	
5.86895	 -5.291512	
5.94052	 -5.297879	
6.0121	 -5.328189	
6.08367	 -5.401611	
6.15524	 -5.310059	
6.22681	 -5.414623	
6.29839	 -5.428051	
6.36996	 -5.382690	
6.44153	 -5.369471	
6.5131	 -5.371094	
6.58468	 -5.460232	
6.65625	 -5.384355	
6.72782	 -5.340576	
6.7994	 -5.372260	
6.87097	 -5.340576	
6.94254	 -5.325651	
7.01411	 -5.310100	
7.08569	 -5.340327	
7.15726	 -5.385895	
7.22883	 -5.341241	
7.3004	 -5.310059	
7.37198	 -5.355835	
7.44355	 -5.355835	
7.51512	 -5.340576	
7.58669	 -5.281246	
7.65827	 -5.357748	
7.72984	 -5.314301	
7.80141	 -5.348847	
7.87298	 -5.310059	
7.94456	 -5.401611	
8.01613	 -5.401611	
8.0877	 -5.358996	
8.15927	 -5.398242	
8.23085	 -5.413293	
8.30242	 -5.428343	
8.37399	 -5.355835	
8.44556	 -5.404266	
8.51714	 -5.451797	
8.58871	 -5.375711	
8.66028	 -5.416870	
8.73185	 -5.391544	
8.80343	 -5.442146	
8.875	 -5.391802	
8.94657	 -5.355835	
9.01815	 -5.395746	
9.08972	 -5.325317	
9.16129	 -5.343272	
9.23286	 -5.303569	
9.30444	 -5.371094	
9.37601	 -5.416870	
9.44758	 -5.317173	
9.51915	 -5.325933	
9.59073	 -5.325317	
9.6623	 -5.355618	
9.73387	 -5.310059	
9.80544	 -5.310059	
9.87702	 -5.386353	
9.94859	 -5.316748	
10.0202	 -5.342873	
10.0917	 -5.358548	
10.1633	 -5.355835	
10.2349	 -5.374639	
10.3065	 -5.371094	
10.378	 -5.426688	
10.4496	 -5.416870	
10.5212	 -5.442363	
10.5927	 -5.406428	
10.6643	 -5.441346	
10.7359	 -5.467047	
10.8075	 -5.416870	
10.879	 -5.481890	
10.9506	 -5.439682	
11.0222	 -5.443819	
11.0937	 -5.393074	
11.1653	 -5.374246	
11.2369	 -5.441499	
11.3085	 -5.414134	
11.38	 -5.404140	
11.4516	 -5.403932	
11.5232	 -5.414758	
11.5948	 -5.403516	
11.6663	 -5.318532	
11.7379	 -5.354347	
11.8095	 -5.386353	
11.881	 -5.371094	
11.9526	 -5.310059	
12.0242	 -5.341889	
12.0958	 -5.400715	
